<svg id="visual" viewBox="0 0 900 600" width="900" height="600" xmlns="http://www.w3.org/2000/svg" xmlns:xlink="http://www.w3.org/1999/xlink" version="1.1"><g stroke-width="1" stroke-linejoin="bevel"><path d="M403 263L405 174L299 206Z" fill="#f77278" stroke="#f77278"></path><path d="M405 174L324 131L299 206Z" fill="#f3878e" stroke="#f3878e"></path><path d="M405 174L382 103L324 131Z" fill="#f57c83" stroke="#f57c83"></path><path d="M299 206L301 332L403 263Z" fill="#f85b5f" stroke="#f85b5f"></path><path d="M139 219L236 316L299 206Z" fill="#f74244" stroke="#f74244"></path><path d="M299 206L236 316L301 332Z" fill="#f57c83" stroke="#f57c83"></path><path d="M510 322L524 185L403 263Z" fill="#f57c83" stroke="#f57c83"></path><path d="M403 263L524 185L405 174Z" fill="#f32126" stroke="#f32126"></path><path d="M405 174L467 85L382 103Z" fill="#f84f52" stroke="#f84f52"></path><path d="M524 185L467 85L405 174Z" fill="#f74244" stroke="#f74244"></path><path d="M273 391L361 392L301 332Z" fill="#f32126" stroke="#f32126"></path><path d="M301 332L361 392L403 263Z" fill="#f84f52" stroke="#f84f52"></path><path d="M361 392L510 322L403 263Z" fill="#f57c83" stroke="#f57c83"></path><path d="M236 316L273 391L301 332Z" fill="#f8676c" stroke="#f8676c"></path><path d="M166 83L161 176L324 131Z" fill="#f84f52" stroke="#f84f52"></path><path d="M324 131L161 176L299 206Z" fill="#f00014" stroke="#f00014"></path><path d="M236 316L236 400L273 391Z" fill="#f74244" stroke="#f74244"></path><path d="M361 392L514 361L510 322Z" fill="#f32126" stroke="#f32126"></path><path d="M510 322L580 227L524 185Z" fill="#f77278" stroke="#f77278"></path><path d="M462 0L361 0L382 103Z" fill="#f85b5f" stroke="#f85b5f"></path><path d="M382 103L361 0L324 131Z" fill="#f09199" stroke="#f09199"></path><path d="M614 335L580 227L510 322Z" fill="#f77278" stroke="#f77278"></path><path d="M621 0L462 0L467 85Z" fill="#f3878e" stroke="#f3878e"></path><path d="M136 403L236 400L236 316Z" fill="#f09199" stroke="#f09199"></path><path d="M273 391L294 467L361 392Z" fill="#f84f52" stroke="#f84f52"></path><path d="M161 176L139 219L299 206Z" fill="#f74244" stroke="#f74244"></path><path d="M361 0L282 0L324 131Z" fill="#f57c83" stroke="#f57c83"></path><path d="M282 0L166 83L324 131Z" fill="#f00014" stroke="#f00014"></path><path d="M161 176L86 86L139 219Z" fill="#f3878e" stroke="#f3878e"></path><path d="M467 85L462 0L382 103Z" fill="#f00014" stroke="#f00014"></path><path d="M616 139L467 85L524 185Z" fill="#f85b5f" stroke="#f85b5f"></path><path d="M236 400L294 467L273 391Z" fill="#f00014" stroke="#f00014"></path><path d="M361 392L487 522L514 361Z" fill="#f32126" stroke="#f32126"></path><path d="M282 0L207 0L166 83Z" fill="#f8676c" stroke="#f8676c"></path><path d="M580 227L616 139L524 185Z" fill="#f85b5f" stroke="#f85b5f"></path><path d="M628 391L614 335L514 361Z" fill="#f8676c" stroke="#f8676c"></path><path d="M514 361L614 335L510 322Z" fill="#f57c83" stroke="#f57c83"></path><path d="M580 227L700 197L616 139Z" fill="#f3878e" stroke="#f3878e"></path><path d="M236 400L220 486L294 467Z" fill="#f3878e" stroke="#f3878e"></path><path d="M82 335L136 403L236 316Z" fill="#f84f52" stroke="#f84f52"></path><path d="M0 222L82 335L139 219Z" fill="#f8676c" stroke="#f8676c"></path><path d="M139 219L82 335L236 316Z" fill="#f32126" stroke="#f32126"></path><path d="M136 403L220 486L236 400Z" fill="#f3878e" stroke="#f3878e"></path><path d="M130 0L86 86L166 83Z" fill="#f00014" stroke="#f00014"></path><path d="M166 83L86 86L161 176Z" fill="#f77278" stroke="#f77278"></path><path d="M308 600L365 526L294 467Z" fill="#f3878e" stroke="#f3878e"></path><path d="M294 467L365 526L361 392Z" fill="#f74244" stroke="#f74244"></path><path d="M207 0L130 0L166 83Z" fill="#f85b5f" stroke="#f85b5f"></path><path d="M487 522L628 391L514 361Z" fill="#f77278" stroke="#f77278"></path><path d="M730 264L700 197L580 227Z" fill="#f77278" stroke="#f77278"></path><path d="M365 526L487 522L361 392Z" fill="#f84f52" stroke="#f84f52"></path><path d="M665 62L621 0L616 139Z" fill="#f85b5f" stroke="#f85b5f"></path><path d="M616 139L621 0L467 85Z" fill="#f84f52" stroke="#f84f52"></path><path d="M730 264L580 227L614 335Z" fill="#f74244" stroke="#f74244"></path><path d="M700 197L665 62L616 139Z" fill="#f85b5f" stroke="#f85b5f"></path><path d="M136 403L107 460L220 486Z" fill="#f84f52" stroke="#f84f52"></path><path d="M308 600L387 600L365 526Z" fill="#f74244" stroke="#f74244"></path><path d="M0 395L107 460L136 403Z" fill="#f09199" stroke="#f09199"></path><path d="M0 130L0 222L139 219Z" fill="#f74244" stroke="#f74244"></path><path d="M82 335L0 395L136 403Z" fill="#f84f52" stroke="#f84f52"></path><path d="M0 130L139 219L86 86Z" fill="#f3878e" stroke="#f3878e"></path><path d="M0 0L0 130L86 86Z" fill="#f85b5f" stroke="#f85b5f"></path><path d="M715 421L730 264L614 335Z" fill="#f74244" stroke="#f74244"></path><path d="M820 108L683 0L665 62Z" fill="#f74244" stroke="#f74244"></path><path d="M0 222L0 325L82 335Z" fill="#f3878e" stroke="#f3878e"></path><path d="M308 600L294 467L220 486Z" fill="#f57c83" stroke="#f57c83"></path><path d="M365 526L387 600L487 522Z" fill="#f00014" stroke="#f00014"></path><path d="M168 600L308 600L220 486Z" fill="#f77278" stroke="#f77278"></path><path d="M773 176L665 62L700 197Z" fill="#f74244" stroke="#f74244"></path><path d="M665 62L683 0L621 0Z" fill="#f77278" stroke="#f77278"></path><path d="M387 600L467 600L487 522Z" fill="#f84f52" stroke="#f84f52"></path><path d="M487 522L615 526L628 391Z" fill="#f32126" stroke="#f32126"></path><path d="M628 391L715 421L614 335Z" fill="#f77278" stroke="#f77278"></path><path d="M572 600L615 526L487 522Z" fill="#f74244" stroke="#f74244"></path><path d="M0 325L0 395L82 335Z" fill="#f32126" stroke="#f32126"></path><path d="M107 460L168 600L220 486Z" fill="#f77278" stroke="#f77278"></path><path d="M706 505L715 421L628 391Z" fill="#f3878e" stroke="#f3878e"></path><path d="M815 323L773 176L730 264Z" fill="#f74244" stroke="#f74244"></path><path d="M730 264L773 176L700 197Z" fill="#f74244" stroke="#f74244"></path><path d="M130 0L0 0L86 86Z" fill="#f32126" stroke="#f32126"></path><path d="M105 600L168 600L107 460Z" fill="#f77278" stroke="#f77278"></path><path d="M615 526L706 505L628 391Z" fill="#f77278" stroke="#f77278"></path><path d="M467 600L572 600L487 522Z" fill="#f00014" stroke="#f00014"></path><path d="M664 600L706 505L615 526Z" fill="#f57c83" stroke="#f57c83"></path><path d="M715 421L815 323L730 264Z" fill="#f85b5f" stroke="#f85b5f"></path><path d="M0 521L105 600L107 460Z" fill="#f57c83" stroke="#f57c83"></path><path d="M800 395L815 323L715 421Z" fill="#f77278" stroke="#f77278"></path><path d="M0 395L0 521L107 460Z" fill="#f77278" stroke="#f77278"></path><path d="M900 164L820 108L773 176Z" fill="#f77278" stroke="#f77278"></path><path d="M773 176L820 108L665 62Z" fill="#f3878e" stroke="#f3878e"></path><path d="M786 483L800 395L715 421Z" fill="#f84f52" stroke="#f84f52"></path><path d="M572 600L664 600L615 526Z" fill="#f3878e" stroke="#f3878e"></path><path d="M706 505L786 483L715 421Z" fill="#f3878e" stroke="#f3878e"></path><path d="M831 600L786 483L706 505Z" fill="#f3878e" stroke="#f3878e"></path><path d="M900 298L773 176L815 323Z" fill="#f00014" stroke="#f00014"></path><path d="M820 108L829 0L683 0Z" fill="#f09199" stroke="#f09199"></path><path d="M900 77L829 0L820 108Z" fill="#f00014" stroke="#f00014"></path><path d="M0 521L0 600L105 600Z" fill="#f00014" stroke="#f00014"></path><path d="M900 298L815 323L900 390Z" fill="#f77278" stroke="#f77278"></path><path d="M900 298L900 164L773 176Z" fill="#f00014" stroke="#f00014"></path><path d="M900 390L815 323L800 395Z" fill="#f00014" stroke="#f00014"></path><path d="M900 164L900 77L820 108Z" fill="#f74244" stroke="#f74244"></path><path d="M900 488L800 395L786 483Z" fill="#f77278" stroke="#f77278"></path><path d="M900 488L900 390L800 395Z" fill="#f57c83" stroke="#f57c83"></path><path d="M900 77L900 0L829 0Z" fill="#f57c83" stroke="#f57c83"></path><path d="M831 600L900 488L786 483Z" fill="#f77278" stroke="#f77278"></path><path d="M664 600L831 600L706 505Z" fill="#f84f52" stroke="#f84f52"></path><path d="M831 600L900 600L900 488Z" fill="#f00014" stroke="#f00014"></path></g></svg>